<svg xmlns="http://www.w3.org/2000/svg" viewBox="0 0 606.26 82.01"><defs><style>.cls-1{fill:#70a1ff;}</style></defs><g id="Layer_2" data-name="Layer 2"><g id="Layer_1-2" data-name="Layer 1"><path class="cls-1" d="M160.77,44.53c0-9.94,7.62-17.13,17.85-17.13,5.43,0,10.09,2,13.19,5.57l-4,3.76a11.71,11.71,0,0,0-8.9-3.91c-6.9,0-11.9,4.86-11.9,11.71s5,11.71,11.9,11.71a11.58,11.58,0,0,0,8.9-4l4,3.81c-3.1,3.62-7.76,5.57-13.24,5.57C168.39,61.67,160.77,54.48,160.77,44.53Z"/><path class="cls-1" d="M194.66,44.53c0-9.85,7.61-17.13,17.94-17.13s18,7.23,18,17.13-7.62,17.14-18,17.14S194.66,54.38,194.66,44.53Zm29.65,0a11.71,11.71,0,1,0-23.42,0,11.71,11.71,0,1,0,23.42,0Z"/><path class="cls-1" d="M237.11,27.87h6.19V56h17.42v5.23H237.11Z"/><path class="cls-1" d="M295.22,52.15c0,5.71-4.47,9-13,9H265.62V27.87h15.61c8,0,12.28,3.38,12.28,8.67a8,8,0,0,1-4.29,7.33A8.2,8.2,0,0,1,295.22,52.15ZM271.8,32.73v9.19h8.76c4.28,0,6.71-1.53,6.71-4.57s-2.43-4.62-6.71-4.62ZM289,51.53c0-3.33-2.52-4.81-7.18-4.81h-10v9.62h10C286.46,56.34,289,54.86,289,51.53Z"/><path class="cls-1" d="M315.49,49.44V61.19H309.3V49.53L296.21,27.87h6.62l9.76,16.23,9.85-16.23h6.09Z"/><path class="cls-1" d="M368.46,44.15h5.85V57.43a21.08,21.08,0,0,1-13,4.24c-10.33,0-17.94-7.19-17.94-17.14s7.61-17.13,18-17.13c5.56,0,10.23,1.86,13.37,5.42l-3.9,3.81a12.41,12.41,0,0,0-9.19-3.81c-7.09,0-12.09,4.81-12.09,11.71s5,11.71,12,11.71a13.45,13.45,0,0,0,6.86-1.71Z"/><path class="cls-1" d="M404.06,53.48H387.4l-3.29,7.71h-6.37l15-33.32h6.09l15,33.32h-6.47ZM402,48.63l-6.28-14.57-6.24,14.57Z"/><path class="cls-1" d="M439.89,61.19l-6.81-9.76a11,11,0,0,1-1.28,0h-7.52v9.71h-6.19V27.87H431.8c8.76,0,14.18,4.48,14.18,11.86a10.64,10.64,0,0,1-7.09,10.51l7.66,10.95Zm-8.38-28.08h-7.23V46.39h7.23c5.43,0,8.24-2.48,8.24-6.66S436.94,33.11,431.51,33.11Z"/><path class="cls-1" d="M452.88,27.87h14.56c10.81,0,18.18,6.67,18.18,16.66s-7.37,16.66-18.18,16.66H452.88ZM467.16,56c7.42,0,12.23-4.53,12.23-11.43s-4.81-11.42-12.23-11.42h-8.09V56Z"/><path class="cls-1" d="M492.19,27.87h6.18V61.19h-6.18Z"/><path class="cls-1" d="M537,27.87V61.19h-5.09L513.51,38.63V61.19h-6.14V27.87h5.09l18.37,22.56V27.87Z"/><path class="cls-1" d="M570.9,56v5.19h-25V27.87h24.32v5.19H552.1v8.67h16.09v5.09H552.1V56Z"/><path class="cls-1" d="M599.6,61.19l-6.81-9.76a11,11,0,0,1-1.28,0H584v9.71H577.8V27.87h13.71c8.76,0,14.18,4.48,14.18,11.86a10.64,10.64,0,0,1-7.09,10.51l7.66,10.95Zm-8.38-28.08H584V46.39h7.23c5.43,0,8.24-2.48,8.24-6.66S596.65,33.11,591.22,33.11Z"/><path class="cls-1" d="M114,47c2.76-.82,10-2.3,10-2.3V71.88C115.64,78.6,104,82,92.75,82,68.36,82,50.29,65.27,49.81,42l-12.9-.57a.38.38,0,0,1,0-.76l12.9-.57C50.29,16.74,68.36,0,93,0c13.33,0,24.49,4.44,32,13l-9.34,9.11a29.56,29.56,0,0,0-22-9.11C77.25,13,65.52,23.75,64.77,39.4L96.47,38a6.09,6.09,0,0,0,5.16-4.51l1.79-6.87a.7.7,0,0,1,1.34,0l1.87,7.2a6.11,6.11,0,0,0,4.69,4.44L123,40.63a.38.38,0,0,1,0,.75l-11.71,2.38a6.1,6.1,0,0,0-4.69,4.43l-1.87,7.2a.69.69,0,0,1-1.34,0l-1.79-6.87A6.09,6.09,0,0,0,96.47,44l-31.7-1.39C65.54,58,77.26,69,93.54,69c5.7,0,12-1.14,17.17-4.1V51.44A4.27,4.27,0,0,1,114,47Z"/><path class="cls-1" d="M64.6,75.9a42.62,42.62,0,0,1-22.45,5.88C18,81.78,0,64.58,0,41S18,.23,42.26.23c8.59,0,16.4,2.05,22.81,6.08a39.84,39.84,0,0,0-8.8,7,30.92,30.92,0,0,0-13.55-2.9c-18,0-31.33,13-31.33,30.63S24.72,71.65,42.72,71.65a30.8,30.8,0,0,0,13.21-2.8A39,39,0,0,0,64.6,75.9Z"/></g></g></svg>